<svg xmlns="http://www.w3.org/2000/svg" viewBox="0 0 24 24" aria-hidden="true" focusable="false">
  <path fill="currentColor" d="M20.1 3.9A9.5 9.5 0 0 0 3.7 17.2L3 21l3.9-1A9.5 9.5 0 0 0 21.5 12a9.5 9.5 0 0 0-1.4-8.1zM12 19.1a7.9 7.9 0 0 1-4-1.1l-.3-.2-2.3.6.6-2.2-.2-.3A7.9 7.9 0 1 1 12 19.1z"></path>
  <path fill="currentColor" d="M16.6 14.1c-.2-.1-1.3-.6-1.5-.7-.2-.1-.4-.1-.6.1l-.8 1c-.1.2-.3.2-.5.1a6.5 6.5 0 0 1-3-2.6c-.2-.3 0-.4.1-.5l.4-.5c.1-.1.2-.3.3-.4.1-.1.1-.3 0-.4l-.7-1.6c-.2-.4-.4-.3-.6-.3h-.5c-.1 0-.4.1-.6.3-.2.2-.8.7-.8 1.8s.8 2.1.9 2.3c.1.2 1.6 2.5 3.9 3.5.6.2 1 .4 1.4.5.6.2 1.1.2 1.5.1.5-.1 1.3-.5 1.5-1 .2-.5.2-.9.1-1-.1-.1-.2-.2-.4-.3z"></path>
</svg>
